<?xml version="1.0" encoding="utf-8"?>
<!-- Generator: Adobe Illustrator 17.0.0, SVG Export Plug-In . SVG Version: 6.00 Build 0)  -->
<!DOCTYPE svg PUBLIC "-//W3C//DTD SVG 1.1//EN" "http://www.w3.org/Graphics/SVG/1.1/DTD/svg11.dtd">
<svg version="1.1" id="Layer_1" xmlns="http://www.w3.org/2000/svg" xmlns:xlink="http://www.w3.org/1999/xlink" x="0px" y="0px"
	 width="799.149px" height="278.785px" viewBox="0 0 799.149 278.785" enable-background="new 0 0 799.149 278.785"
	 xml:space="preserve">
<g>
	<defs>
		<rect id="SVGID_1_" width="799.149" height="278.785"/>
	</defs>
	<clipPath id="SVGID_2_">
		<use xlink:href="#SVGID_1_"  overflow="visible"/>
	</clipPath>
	<path clip-path="url(#SVGID_2_)" fill="#FFFFFF" d="M182.262,156.921l23.506,4.353c-7.835,16.89-22.635,26.466-44.227,26.466
		c-26.641,0-46.84-18.108-46.84-45.968c0-28.208,21.418-45.969,47.537-45.969c22.462,0,33.083,7.835,42.486,20.547l-22.462,9.751
		c-4.875-6.269-9.577-9.403-17.413-9.403c-12.362,0-19.676,8.358-19.676,24.9c0,13.929,7.139,24.899,20.373,24.899
		C172.163,166.497,179.128,163.711,182.262,156.921"/>
	<path clip-path="url(#SVGID_2_)" fill="#FFFFFF" d="M209.598,141.947c0-27.687,19.502-46.143,48.058-46.143
		c28.731,0,48.059,18.456,48.059,46.143c0,27.859-19.328,45.794-48.059,45.794C229.1,187.741,209.598,169.806,209.598,141.947
		 M275.243,141.947c0-15.498-6.269-24.9-17.587-24.9c-11.318,0-17.586,9.228-17.586,24.9c0,15.67,6.268,24.551,17.586,24.551
		C268.974,166.498,275.243,157.443,275.243,141.947"/>
	<path clip-path="url(#SVGID_2_)" fill="#FFFFFF" d="M313.372,141.947c0-27.687,19.502-46.143,48.059-46.143
		c28.731,0,48.057,18.456,48.057,46.143c0,27.859-19.326,45.794-48.057,45.794C332.874,187.741,313.372,169.806,313.372,141.947
		 M379.018,141.947c0-15.498-6.269-24.9-17.587-24.9c-11.318,0-17.587,9.228-17.587,24.9c0,15.67,6.269,24.551,17.587,24.551
		C372.749,166.498,379.018,157.443,379.018,141.947"/>
	<path clip-path="url(#SVGID_2_)" fill="#FFFFFF" d="M421.499,98.937h13.93v16.194c6.444-10.97,17.76-17.239,30.298-17.239
		c23.855,0,40.744,17.413,40.744,44.576c0,26.293-17.237,45.272-41.964,45.272c-10.794,0-21.939-5.224-29.078-14.278v45.62h-13.93
		V98.937z M492.193,143.339c0-20.721-10.97-33.606-26.988-33.606c-17.761,0-29.776,12.537-29.776,33.606
		c0,20.372,12.015,32.561,29.776,32.561C481.223,175.9,492.193,163.886,492.193,143.339"/>
	<path clip-path="url(#SVGID_2_)" fill="#FFFFFF" d="M598.407,174.507v11.492h-8.706c-8.532,0-13.581-4.702-13.407-15.148
		c-5.921,10.621-17.064,16.542-29.602,16.542c-14.974,0-27.336-8.532-27.336-25.074c0-20.896,18.107-26.119,38.829-28.209
		c12.014-1.219,16.193-2.786,16.193-10.795c0-7.836-5.224-14.627-17.935-14.627c-12.013,0-20.199,6.269-22.81,14.104l-13.233-1.741
		c6.093-15.323,20.546-23.855,36.043-23.855c21.94,0,31.866,12.014,31.866,28.73v44.055c0,2.786,2.436,4.526,5.397,4.526H598.407z
		 M574.378,138.986c-3.134,4.179-10.621,4.179-19.153,5.223c-14.452,1.916-22.288,6.27-22.288,17.065
		c0,9.751,6.617,15.323,17.238,15.323c14.278,0,24.203-11.841,24.203-25.074V138.986z"/>
	<path clip-path="url(#SVGID_2_)" fill="#FFFFFF" d="M684.075,98.938l-35.696,86.018c-9.054,21.94-20.024,34.999-36.74,34.999
		c-4.702,0-9.229-0.872-12.885-2.438l1.218-10.621c3.831,1.218,6.79,1.915,11.144,1.915c11.667,0,17.935-9.055,23.855-22.114
		l-35.869-87.759h14.974l28.034,73.655l28.034-73.655H684.075z"/>
</g>
</svg>
