<?xml version="1.0" encoding="utf-8"?>
<!-- Generator: Adobe Illustrator 23.0.1, SVG Export Plug-In . SVG Version: 6.00 Build 0)  -->
<svg version="1.1" id="Layer_1" xmlns="http://www.w3.org/2000/svg" xmlns:xlink="http://www.w3.org/1999/xlink" x="0px" y="0px"
	 viewBox="0 0 169.1 116.3" style="enable-background:new 0 0 169.1 116.3;" xml:space="preserve">
<style type="text/css">
	.st0{fill:#007482;}
</style>
<g>
	<path class="st0" d="M163,58.1c-1-0.8-2.1-1.6-3.4-2.2l-0.3-0.2l0.3-0.2c2.3-2,5-5.9,5-12.4c0-6.1-2.1-10.6-6.2-13.4
		c-3.5-2.5-8.3-3.7-14.7-3.7l-18.4,0c-1.1,0-1.9,0.9-1.9,1.9l0.1,60.4c0,1.1,0.9,1.9,1.9,1.9l21,0c6.6,0,12-1.4,15.8-4.2
		c2.2-1.6,4-3.7,5.1-6.2c1.2-2.5,1.8-5.5,1.8-8.8C169.1,65.8,166.9,61.3,163,58.1z M129.4,32l14.4,0c5.1,0,8.8,0.8,11.3,2.5
		c1.5,1.1,3.6,3.2,3.7,8.6c0,9.6-7.6,10.4-9.9,10.4l-19.4,0L129.4,32z M146.5,84.2l-17,0l0-24.8l19.4,0c8.4,0,14.3,4.7,14.3,11.5
		C163.1,74.2,163.1,84.2,146.5,84.2z"/>
	<path class="st0" d="M40.9,35.7c-2.7-3.3-6.2-5.8-10.2-7.5c-3.5-1.4-7.3-2.1-11.3-2.1l-17.5,0c-1.1,0-1.9,0.9-1.9,2l0.1,60.4
		c0,1.1,0.9,1.9,1.9,1.9l17.5,0c4,0,7.8-0.7,11.3-2.1c4-1.6,7.4-4.1,10.1-7.5c6.2-7.6,7.1-17.2,7.1-22.2
		C48,54.3,47.3,43.5,40.9,35.7z M36.3,77c-5,6.1-11.9,7.4-16.8,7.4l-13.4,0L6,32.2l13.4,0c4.9,0,11.8,1.2,16.8,7.3
		C41.6,46,42,55.8,42,58.6C42,62.9,41.3,70.9,36.3,77z"/>
	<path class="st0" d="M108.9,0l0.2,88.7c0,0.8-0.5,1.5-1.2,1.7c-0.2,0.1-0.4,0.1-0.6,0.1c-0.6,0-1.1-0.3-1.5-0.8L66.1,39.5l0.1,76.8
		l-6,0l-0.2-88.9c0-0.8,0.5-1.5,1.3-1.7c0.2-0.1,0.4-0.1,0.6-0.1c0.6,0,1.1,0.2,1.5,0.7l39.6,50.3L102.9,0L108.9,0z"/>
</g>
</svg>
