<?xml version="1.0" encoding="UTF-8"?>
<svg width="100px" height="30px" viewBox="0 0 100 30" version="1.1" xmlns="http://www.w3.org/2000/svg" xmlns:xlink="http://www.w3.org/1999/xlink">
    <!-- Generator: sketchtool 55.2 (78181) - https://sketchapp.com -->
    <title>C76757BB-17EA-4924-90DE-E9CC2D5DABBD</title>
    <desc>Created with sketchtool.</desc>
    <g id="Page-1" stroke="none" stroke-width="1" fill="none" fill-rule="evenodd">
        <g id="009" transform="translate(-61.000000, -38.000000)" fill="#FFFFFF">
            <g id="Logo" transform="translate(61.000000, 38.000000)">
                <path d="M85.5478342,18.1547619 C81.8592188,18.1547619 80.3506287,15.3311012 80.3506287,12.1820437 C80.3506287,8.98090278 81.8592188,6.1547619 85.5478342,6.1547619 C89.2259393,6.1547619 90.7384402,8.98090278 90.7384402,12.1820437 C90.7384402,15.3311012 89.2259393,18.1547619 85.5478342,18.1547619 M59.3474461,18.1547619 C55.6588308,18.1547619 54.1541514,15.3311012 54.1541514,12.1820437 C54.1541514,8.98090278 55.6588308,6.1547619 59.3474461,6.1547619 C63.0240847,6.1547619 64.5363412,8.98090278 64.5363412,12.1820437 C64.5363412,15.3311012 63.0240847,18.1547619 59.3474461,18.1547619 M34.0609626,18.1547619 C30.3777246,18.1547619 28.8715787,15.3311012 28.8715787,12.1820437 C28.8715787,8.98090278 30.3777246,6.1547619 34.0609626,6.1547619 C37.7468893,6.1547619 39.2540129,8.98090278 39.2540129,12.1820437 C39.2540129,15.3311012 37.7468893,18.1547619 34.0609626,18.1547619 M85.5478342,1 C78.9970039,1 73.8024871,4.01116071 72.4410407,9.32316468 C71.0888824,4.01116071 65.8870329,1 59.3474461,1 C53.3937457,1 48.5526673,3.4828869 46.7040821,7.93030754 C44.8515862,3.4828869 40.0078191,1 34.0609626,1 C26.4263525,1 20.612952,5.09474206 20.612952,12.1820437 C20.612952,13.9618056 20.9864332,15.547123 21.6683785,16.9342758 C20.3369963,17.5513393 18.4937886,17.9112103 16.8270556,17.9112103 C13.3652665,17.9112103 10.2561824,15.703373 10.2561824,12.2983631 C10.2561824,8.61284722 12.9394784,6.1547619 16.4015119,6.1547619 C17.4652488,6.1547619 18.3178027,6.37326389 19.2703263,6.7703373 C19.9999345,5.10193452 21.0793146,3.61706349 22.4801134,2.38963294 C20.5342472,1.52901786 18.3251354,1 15.4492327,1 C7.8160892,1 2,5.09474206 2,12.1820437 C2,19.2162698 7.8160892,23.3174603 15.4492327,23.3174603 C19.1754895,23.3174603 22.4231624,22.3940972 25.0172433,20.8055556 C27.6758523,22.484127 30.4383419,23.3174603 34.0609626,23.3174603 C40.0078191,23.3174603 44.8515862,20.8251488 46.7040821,16.3983135 C48.5526673,20.8251488 53.3937457,23.3174603 59.3474461,23.3174603 C65.4223813,23.3174603 70.3446088,20.7155258 72.1008013,16.1054067 L72.1008013,29 L80.3102986,29 L80.3102986,22.5897817 C81.9117702,23.0657242 83.6752955,23.3174603 85.5478342,23.3174603 C93.1812221,23.3174603 99,19.2162698 99,12.1820437 C99,5.09474206 93.1812221,1 85.5478342,1" id="Fill-1"></path>
            </g>
        </g>
    </g>
</svg>